<svg viewBox="0 0 24 24" version="1.1" xmlns="http://www.w3.org/2000/svg" xmlns:xlink="http://www.w3.org/1999/xlink"><g fill="#aaa" fill-rule="nonzero"><path d="M21.0771321,18.3665378 L18.2763943,15.5632233 C17.9649685,15.2398625 17.6268001,15.0849627 17.2812515,15.0849627 C16.9327187,15.0849627 16.5834299,15.2417028 16.2505079,15.5736915 L14.6458381,17.1688073 L13.9398822,16.4599129 L15.5445519,14.8647971 C16.0574369,14.3533472 16.656649,14.0849627 17.2812515,14.0849627 C17.910932,14.0849627 18.505066,14.3584111 18.9976387,14.8698609 L21.7854985,17.6600476 C22.2983835,18.1664336 22.5675211,18.7690329 22.5675211,19.3969515 C22.5675211,20.0198063 20.5159813,22.3998203 20.2316094,22.7441628 C19.459743,23.5796996 18.4745976,24 17.3015637,24 C17.2000023,24 17.0882848,23.9949361 16.9816454,23.9898723 C15.2398678,23.8784674 13.6809007,23.2252295 12.5129448,22.6732688 C9.45594739,21.1996856 6.77980511,19.1083115 4.55561097,16.4599129 C2.72242812,14.2621978 1.49353546,12.2113346 0.670888312,9.99842789 C0.335735769,9.09706087 -0.10097815,7.71969102 0.0208955021,6.24104399 C0.102144603,5.32448538 0.472843628,4.53452326 1.12283644,3.88634922 C3.0186488,2.22540324 4.17306311,1.39493024 4.58607938,1.39493024 C5.20560378,1.39493024 5.79465976,1.65318709 6.28723244,2.13931762 C6.61730691,2.4431492 6.93722525,2.76723622 7.24190938,3.08119553 C7.39425144,3.24323904 7.55674964,3.40528255 7.71416978,3.5622622 L9.10048257,4.9446959 C10.166877,6.00810644 10.166877,7.38547628 9.10048257,8.44888682 C8.95829664,8.59067489 8.81611071,8.73752683 8.67392479,8.8793149 C8.29814769,9.25910438 7.91221446,9.65408543 7.49581282,10.0338749 C7.80557502,10.717496 8.2321328,11.3909893 8.8668914,12.1910791 C9.56392138,13.0451111 10.2767623,13.7959428 11.0176495,14.4550129 L10.3520601,15.2018698 C9.57140028,14.5074193 8.82196394,13.718421 8.08250367,12.8122501 C7.40282469,11.9555398 6.93171231,11.2136897 6.58398842,10.4462901 L6.28427926,9.78485535 L6.82098642,9.29533823 C7.0009295,9.13121667 7.18520696,8.95470097 7.39533473,8.74652181 C7.48164659,8.66101036 7.57115336,8.57135067 7.67870769,8.46285016 C7.82022942,8.31984257 7.82022942,8.31984257 7.96684523,8.17153912 C8.02329765,8.11524466 8.06826274,8.06980487 8.17388276,7.9626043 C8.28154163,7.85332487 8.33136716,7.80297331 8.39340302,7.74111104 C9.0680244,7.06837734 9.0680244,6.32520538 8.39340302,5.65247168 L7.00709023,4.27003798 C6.76074465,4.02438171 6.64890704,3.91107264 6.52331261,3.7772965 C6.14554011,3.38802387 5.87869996,3.12299051 5.58383285,2.8507441 C5.27265048,2.54363155 4.93299153,2.39493024 4.58607938,2.39493024 C4.45610669,2.51364795 4.25001279,2.64611233 3.99536563,2.8293027 C3.44852966,3.2226905 2.70866895,3.82700723 1.82991599,4.594125 C1.34566173,5.07702426 1.07829803,5.64794933 1.01842838,6.32311372 C0.931443641,7.37846675 1.15205884,8.42088665 1.60917116,9.65025515 C2.3929015,11.7584763 3.56652089,13.7121346 5.32236583,15.8171417 C7.45758872,18.3596002 10.0214465,20.3619696 12.9409271,21.7692976 C14.4974753,22.504902 15.7302981,22.9077884 17.029164,22.9909999 C17.1662786,22.9975109 17.2370018,23 17.3015637,23 C18.1997284,23 18.9167937,22.6930162 19.4595688,22.1077386 C19.4709508,22.0939562 19.7624566,21.7468668 19.8945615,21.5874479 C20.1434327,21.2871202 20.3754642,21.0000153 20.5931331,20.7203293 C20.6743807,20.615933 20.752179,20.5143898 20.8262253,20.4159888 C21.0824806,20.0754477 21.2876867,19.7805962 21.4279492,19.5485498 C21.4886141,19.4481876 21.5341801,19.3642723 21.5628082,19.3022444 C21.5370159,18.9819706 21.3796058,18.6652083 21.0771321,18.3665378 Z M11.9890877,-4.4408921e-16 C18.6225314,-4.4408921e-16 24,5.372583 24,12 L22.9990906,12 C22.9990906,5.92486775 18.0697444,1 11.9890877,1 L11.9890877,-4.4408921e-16 Z M11.9890877,5 L11.9890877,4 C16.4113835,4 19.9963626,7.581722 19.9963626,12 L18.9954532,12 C18.9954532,8.13400675 15.8585965,5 11.9890877,5 Z"></path></g></svg>