<svg width="24px" height="24px" viewBox="0 0 24 24" version="1.1" xmlns="http://www.w3.org/2000/svg" xmlns:xlink="http://www.w3.org/1999/xlink"><defs><path d="M22.8758501,20.9356936 C22.8758501,21.1789179 22.6782238,21.3757376 22.4357914,21.3757376 L21.0004001,21.3757376 L21.0004001,14.7190719 L22.4357914,14.7190719 C22.6782238,14.7190719 22.8758501,14.9166917 22.8758501,15.1583158 L22.8758501,20.9356936 Z M18.7264969,22.8758876 L5.27350313,22.8758876 C4.67182291,22.8758876 4.18135751,22.4086409 4.13415122,21.8189819 C4.13415122,21.8173817 4.13495133,21.8157816 4.13415122,21.8141814 C4.13015069,21.7853785 4.12454994,21.7565757 4.12454994,21.7269727 L4.12454994,14.1566157 L4.12454994,12.5580558 C4.17735698,12.5612561 4.22936392,12.5628563 4.28137085,12.5628563 L5.4847313,12.5628563 L5.4847313,14.5438544 C5.27430324,14.7630763 5.10548073,15.019902 4.99026537,15.3055306 C4.97666356,15.3391339 4.9702627,15.3743374 4.95746099,15.4087409 C4.91985598,15.5167517 4.88225097,15.6239624 4.85904787,15.7383738 C4.82864382,15.890389 4.81264169,16.0464046 4.81264169,16.2040204 C4.81264169,17.529753 5.8919856,18.609861 7.21856247,18.609861 C8.54513935,18.609861 9.62528337,17.529753 9.62528337,16.2040204 C9.62528337,16.0464046 9.60848113,15.890389 9.57807708,15.7383738 C9.55567409,15.6239624 9.51806908,15.5167517 9.47966396,15.4087409 C9.46766235,15.3743374 9.4612615,15.3391339 9.44765969,15.3055306 C9.33164422,15.019902 9.16282171,14.7630763 8.95319376,14.5438544 L8.95319376,12.5628563 L14.8011735,12.5628563 L14.8011735,14.5438544 C14.5915455,14.7630763 14.422723,15.019902 14.3067076,15.3055306 C14.2931057,15.3391339 14.2867049,15.3743374 14.2747033,15.4087409 C14.2362982,15.5167517 14.1986932,15.6239624 14.1762902,15.7383738 C14.1458861,15.890389 14.1290839,16.0464046 14.1290839,16.2040204 C14.1290839,17.529753 15.2084278,18.609861 16.5350047,18.609861 C17.8623817,18.609861 18.9417256,17.529753 18.9417256,16.2040204 C18.9417256,16.0464046 18.9257234,15.890389 18.8945193,15.7383738 C18.8721163,15.6239624 18.8345113,15.5167517 18.7961061,15.4087409 C18.7841045,15.3743374 18.7777037,15.3391339 18.7641019,15.3055306 C18.6488865,15.019902 18.480064,14.7622762 18.269636,14.5438544 L18.269636,12.5628563 L19.7194293,12.5628563 C19.7706361,12.5628563 19.8234431,12.5612561 19.8754501,12.5580558 L19.8754501,14.1566157 L19.8754501,21.7269727 C19.8754501,21.7525753 19.8690492,21.7773777 19.867449,21.8021802 C19.8650487,21.8205821 19.8626484,21.8381838 19.8586478,21.8677868 C19.8586478,21.8725873 19.860248,21.8765877 19.8594479,21.8821882 C19.7834378,22.4414441 19.3073743,22.8758876 18.7264969,22.8758876 Z M1.12494999,20.9356936 L1.12494999,15.1583158 C1.12494999,14.9166917 1.32177624,14.7190719 1.56420856,14.7190719 L2.99959995,14.7190719 L2.99959995,21.3757376 L1.56420856,21.3757376 C1.32177624,21.3757376 1.12494999,21.1789179 1.12494999,20.9356936 Z M2.62434991,5.78137814 C2.62434991,4.86768677 3.36764902,4.12521252 4.28137085,4.12521252 L5.4847313,4.12521252 L5.4847313,11.4379438 L4.28137085,11.4379438 C4.18935858,11.4379438 4.10134685,11.4251425 4.01333511,11.4107411 C3.92692359,11.3947395 3.83891185,11.3707371 3.74609948,11.3387339 C3.74209895,11.3379338 3.73889852,11.3387339 3.73489799,11.3379338 C3.09081211,11.1107111 2.62434991,10.5026503 2.62434991,9.78177818 L2.62434991,5.78137814 Z M8.02747033,1.9049905 C8.02747033,1.47454745 8.37711695,1.12571257 8.80677424,1.12571257 L15.1932258,1.12571257 C15.6236832,1.12571257 15.9725297,1.47454745 15.9725297,1.9049905 L15.9725297,3.00030003 L15.3636485,3.00030003 L8.39071876,3.00030003 L8.02747033,3.00030003 L8.02747033,1.9049905 Z M17.144686,12.0004 L17.144686,13.8765877 C17.130284,13.8725873 17.115082,13.8749875 17.09988,13.8709871 C16.9182558,13.8269827 16.7302307,13.7973797 16.5350047,13.7973797 C16.3397786,13.7973797 16.1533538,13.8269827 15.9709295,13.8709871 C15.9565275,13.8749875 15.9405254,13.8725873 15.9253234,13.8765877 L15.9253234,12.0004 L15.9253234,4.12521252 L16.5350047,4.12521252 L17.144686,4.12521252 L17.144686,12.0004 Z M15.285238,15.929593 C15.2868382,15.9247925 15.2884385,15.919992 15.2900387,15.9159916 C15.3540472,15.650365 15.502867,15.4063406 15.7236965,15.2239224 C15.7236965,15.2239224 15.7236965,15.2231223 15.7244966,15.2231223 C15.8901187,15.0855086 16.1645553,14.9222922 16.5350047,14.9222922 C16.9062542,14.9222922 17.1814909,15.0855086 17.3471129,15.2231223 C17.3479131,15.2231223 17.3479131,15.2239224 17.3479131,15.2239224 C17.5679424,15.4063406 17.7175623,15.650365 17.7815709,15.9159916 C17.782371,15.919992 17.7847713,15.9247925 17.7863715,15.929593 C17.8063742,16.0184018 17.8167756,16.1112111 17.8167756,16.2040204 C17.8167756,16.909691 17.242299,17.4849485 16.5350047,17.4849485 C15.8285105,17.4849485 15.2540339,16.909691 15.2540339,16.2040204 C15.2540339,16.1112111 15.2644353,16.0184018 15.285238,15.929593 Z M8.95319376,11.4379438 L14.8011735,11.4379438 L14.8011735,4.12521252 L8.95319376,4.12521252 L8.95319376,11.4379438 Z M5.96879584,15.929593 C5.96959595,15.9247925 5.97199627,15.919992 5.97279637,15.9159916 C6.03680491,15.650365 6.18642486,15.4063406 6.40645419,15.2239224 L6.4072543,15.2231223 C6.57287638,15.0855086 6.84811308,14.9222922 7.21856247,14.9222922 C7.58981197,14.9222922 7.86424857,15.0855086 8.03067076,15.2231223 C8.03067076,15.2231223 8.03067076,15.2239224 8.03067076,15.2239224 C8.2515002,15.4063406 8.40112015,15.650365 8.46432858,15.9159916 C8.46592879,15.919992 8.46832911,15.9247925 8.46912922,15.929593 C8.48993199,16.0184018 8.50033338,16.1112111 8.50033338,16.2040204 C8.50033338,16.909691 7.92505667,17.4849485 7.21856247,17.4849485 C6.51206828,17.4849485 5.93759168,16.909691 5.93759168,16.2040204 C5.93759168,16.1112111 5.94799307,16.0184018 5.96879584,15.929593 Z M6.60888118,4.12521252 L7.46499533,4.12521252 L7.82824377,4.12521252 L7.82824377,12.0004 L7.82824377,13.8765877 C7.81384185,13.8725873 7.79783971,13.8749875 7.78343779,13.8709871 C7.60181358,13.8269827 7.41378851,13.7973797 7.21856247,13.7973797 C7.02333644,13.7973797 6.83611148,13.8269827 6.65448726,13.8709871 C6.64008534,13.8749875 6.62408321,13.8725873 6.60888118,13.8765877 L6.60888118,12.0004 L6.60888118,4.12521252 Z M21.3756501,5.78137814 L21.3756501,9.78177818 C21.3756501,10.5026503 20.909988,11.1107111 20.265102,11.3379338 C20.2611015,11.3387339 20.2579011,11.3379338 20.2547006,11.3387339 C20.1610881,11.3707371 20.0730764,11.3947395 19.987465,11.4107411 C19.8994533,11.4251425 19.8106414,11.4379438 19.7194293,11.4379438 L18.269636,11.4379438 L18.269636,4.12521252 L19.7194293,4.12521252 C20.632351,4.12521252 21.3756501,4.86768677 21.3756501,5.78137814 Z M22.4357914,13.5941594 L21.0004001,13.5941594 L21.0004001,12.2356236 C21.8877184,11.769977 22.5006001,10.8514851 22.5006001,9.78177818 L22.5006001,5.78137814 C22.5006001,4.24762476 21.2532338,3.00030003 19.7194293,3.00030003 L17.707161,3.00030003 L17.0974797,3.00030003 L17.0974797,1.9049905 C17.0974797,0.854485449 16.2437658,0 15.1932258,0 L8.80677424,0 C7.75703427,0 6.90252034,0.854485449 6.90252034,1.9049905 L6.90252034,3.00030003 L6.04720629,3.00030003 L4.28137085,3.00030003 C2.74756634,3.00030003 1.50020003,4.24762476 1.50020003,5.78137814 L1.50020003,9.78177818 C1.50020003,10.8514851 2.11308174,11.769977 2.99959995,12.2356236 L2.99959995,13.5941594 L1.56420856,13.5941594 C0.701693559,13.5941594 0,14.2958296 0,15.1583158 L0,20.9356936 C0,21.7989799 0.701693559,22.5006501 1.56420856,22.5006501 L3.14441926,22.5006501 C3.46206161,23.3727373 4.29257234,24 5.27350313,24 L18.7264969,24 C19.7074277,24 20.5379384,23.3727373 20.8563809,22.5006501 L22.4357914,22.5006501 C23.2983064,22.5006501 24,21.7989799 24,20.9356936 L24,15.1583158 C24,14.2958296 23.2983064,13.5941594 22.4357914,13.5941594 Z" id="navbar-logo-icon"></path></defs> <g id="Page-1" stroke="none" stroke-width="1" fill="none" fill-rule="evenodd"><g id="Tour-Home---Desktop" transform="translate(-987.000000, -18.000000)"><g id="Header"><g id="header"><g id="top-nav" transform="translate(862.000000, 18.000000)"><g id="hotel-icon" transform="translate(125.000000, 0.000000)"><mask id="mask-2" fill="white"><use xlink:href="#navbar-logo-icon"></use></mask> <use id="tour" fill="#000000" xlink:href="#navbar-logo-icon"></use></g></g></g></g></g></g></svg>