<svg width="30px" height="33px" viewBox="0 0 30 33" version="1.1" xmlns="http://www.w3.org/2000/svg" xmlns:xlink="http://www.w3.org/1999/xlink"><g id="Page-1" stroke="none" stroke-width="1" fill="none" fill-rule="evenodd"><g id="Tour-Available---List-View---Desktop" transform="translate(-1138.000000, -1270.000000)" fill="#757575" fill-rule="nonzero"><g id="filter" transform="translate(1105.000000, 190.000000)"><g id="class" transform="translate(0.000000, 1009.000000)"><path d="M61.4695986,79.4076433 C62.4323386,79.4076433 63.1200101,80.1783439 62.9824758,81.1592357 L62.9824758,84.9426752 C62.9824758,85.8535032 62.2260372,86.6242038 61.3320643,86.6242038 L60.4380914,86.6242038 L60.4380914,97.4840764 C60.4380914,98.1847134 60.1630228,98.8152866 59.7504199,99.2356688 L59.7504199,102.038217 C59.7504199,103.089172 58.9252142,104 57.8249398,104 L55.8306926,104 C54.7991854,104 53.9052125,103.159236 53.9052125,102.038217 L53.9052125,99.9363057 L42.0772633,99.9363057 L42.0772633,102.038217 C42.0772633,103.089172 41.2520576,104 40.1517832,104 L38.157536,104 C37.1260288,104 36.2320559,103.159236 36.2320559,102.038217 L36.2320559,99.2356688 C35.819453,98.7452229 35.5443844,98.1847134 35.5443844,97.4840764 L35.5443844,86.6242038 L34.6504115,86.6242038 C33.7564386,86.6242038 33,85.8535032 33,84.9426752 L33,81.1592357 C33,80.2484076 33.7564386,79.477707 34.6504115,79.477707 L35.5443844,79.477707 L35.5443844,75.4840764 C35.5443844,74.1528662 36.6446588,73.0318471 37.9512345,73.0318471 L42.9712362,73.0318471 L42.9712362,72.3312102 C42.9712362,71.6305732 43.5901405,71 44.277812,71 L51.8421981,71 C52.5298696,71 53.1487739,71.6305732 53.1487739,72.3312102 L53.1487739,73.0318471 L58.1687756,73.0318471 C59.4753513,73.0318471 60.5756257,74.1528662 60.5756257,75.4840764 L60.5756257,79.4076433 L61.4695986,79.4076433 Z M59.2002827,97.4840764 L59.1315156,97.4840764 L59.1315156,92.1592357 L36.9197273,92.1592357 L36.9197273,97.4840764 C36.9197273,98.044586 37.4010974,98.5350318 37.9512345,98.5350318 L58.1687756,98.5350318 C58.7189127,98.5350318 59.2002827,98.044586 59.2002827,97.4840764 Z M36.9197273,90.7579618 L36.9197273,90.8280255 L59.1315156,90.8280255 L59.1315156,79.9681529 L36.9197273,79.9681529 L36.9197273,90.7579618 Z M44.3465791,72.3312102 L44.3465791,73.0318471 L51.7046638,73.0318471 L51.7046638,72.3312102 L44.3465791,72.3312102 Z M37.9512345,74.3630573 C37.4010974,74.3630573 36.9197273,74.8535032 36.9197273,75.4840764 L36.9197273,78.4968153 L59.1315156,78.4968153 L59.1315156,75.4140127 C59.1315156,74.8535032 58.6501456,74.3630573 58.1000084,74.3630573 L37.9512345,74.3630573 Z M34.6504115,85.2229299 L34.6504115,85.2929936 L35.5443844,85.2929936 L35.5443844,80.8789809 L34.6504115,80.8789809 C34.5128772,80.8789809 34.3753429,81.0191083 34.3753429,81.1592357 L34.3753429,84.9426752 C34.3753429,85.0828025 34.5128772,85.2229299 34.6504115,85.2229299 Z M40.7706875,102.038217 L40.8394547,102.038217 L40.8394547,99.9363057 C40.4268518,99.9363057 38.0200017,100.006369 37.6761659,99.9363057 L37.6761659,102.038217 C37.6761659,102.318471 37.8824674,102.598726 38.2263031,102.598726 L40.2205504,102.598726 C40.4956189,102.598726 40.7706875,102.388535 40.7706875,102.038217 Z M57.893707,102.598726 C58.2375427,102.598726 58.5126113,102.318471 58.5126113,102.038217 L58.5126113,99.9363057 C58.1000084,99.9363057 55.7619254,99.9363057 55.3493226,99.9363057 L55.3493226,102.038217 C55.3493226,102.318471 55.555624,102.598726 55.8994597,102.598726 L57.893707,102.598726 Z M61.7446672,84.9426752 L61.7446672,81.089172 C61.7446672,80.9490446 61.6071329,80.8089172 61.4695986,80.8089172 L60.5756257,80.8089172 L60.5756257,85.2229299 L61.4695986,85.2229299 C61.6071329,85.2229299 61.7446672,85.0828025 61.7446672,84.9426752 Z M55.3493226,97.9044586 C54.0427468,97.9044586 52.9424724,96.7834395 52.9424724,95.4522293 C52.9424724,94.1210191 54.0427468,93 55.3493226,93 C56.6558983,93 57.7561727,94.1210191 57.7561727,95.4522293 C57.7561727,96.7834395 56.6558983,97.9044586 55.3493226,97.9044586 Z M55.3493226,94.4012739 C54.7991854,94.4012739 54.3178154,94.8216561 54.3178154,95.4522293 C54.3178154,96.0127389 54.7991854,96.5031847 55.3493226,96.5031847 C55.8994597,96.5031847 56.3808297,96.0127389 56.3808297,95.4522293 C56.3808297,94.8917197 55.8994597,94.4012739 55.3493226,94.4012739 Z M40.7706875,97.9044586 C39.4641118,97.9044586 38.3638374,96.7834395 38.3638374,95.4522293 C38.3638374,94.1210191 39.4641118,93 40.7706875,93 C42.0772633,93 43.1775377,94.1210191 43.1775377,95.4522293 C43.1775377,96.7834395 42.0772633,97.9044586 40.7706875,97.9044586 Z M40.7706875,94.4012739 C40.2205504,94.4012739 39.7391803,94.8216561 39.7391803,95.4522293 C39.7391803,96.0127389 40.2205504,96.5031847 40.7706875,96.5031847 C41.3208247,96.5031847 41.8021947,96.0127389 41.8021947,95.4522293 C41.8021947,94.8917197 41.3208247,94.4012739 40.7706875,94.4012739 Z M45.1717849,77.3757962 C44.8279492,77.3757962 44.4841134,77.0955414 44.4841134,76.6751592 C44.4841134,76.2547771 44.759182,75.9745223 45.1717849,75.9745223 L50.879458,75.9745223 C51.2920609,75.9745223 51.5671295,76.2547771 51.5671295,76.6751592 C51.5671295,77.0955414 51.2920609,77.3757962 50.879458,77.3757962 L45.1717849,77.3757962 Z" id="Combined-Shape"></path></g></g></g></g></svg>