<svg viewBox="0 0 24 24" version="1.1" xmlns="http://www.w3.org/2000/svg" xmlns:xlink="http://www.w3.org/1999/xlink"><g fill="black" fill-rule="nonzero" transform="translate(-76.000000, 0.000000)"><path d="M84.0000184,1 C81.2385947,1 79.0000184,3.23857625 79.0000184,6 L79.0000184,17 C79.0000184,18.1045695 79.8954489,19 81.0000184,19 L95.0000184,19 C96.1045879,19 97.0000184,18.1045695 97.0000184,17 L97.0000184,6 C97.0000184,3.23857625 94.7614422,1 92.0000184,1 L84.0000184,1 Z M84.0000184,0 L92.0000184,0 C95.3137269,0 98.0000184,2.6862915 98.0000184,6 L98.0000184,17 C98.0000184,18.6568542 96.6568727,20 95.0000184,20 L81.0000184,20 C79.3431642,20 78.0000184,18.6568542 78.0000184,17 L78.0000184,6 C78.0000184,2.6862915 80.6863099,0 84.0000184,0 Z M84.0000184,5 C82.8954489,5 82.0000184,5.8954305 82.0000184,7 L82.0000184,10 C82.0000184,10.5522847 82.4477337,11 83.0000184,11 L93.0000184,11 C93.5523032,11 94.0000184,10.5522847 94.0000184,10 L94.0000184,7 C94.0000184,5.8954305 93.1045879,5 92.0000184,5 L84.0000184,5 Z M84.0000184,4 L92.0000184,4 C93.6568727,4 95.0000184,5.34314575 95.0000184,7 L95.0000184,10 C95.0000184,11.1045695 94.1045879,12 93.0000184,12 L83.0000184,12 C81.8954489,12 81.0000184,11.1045695 81.0000184,10 L81.0000184,7 C81.0000184,5.34314575 82.3431642,4 84.0000184,4 Z M93.5000184,16 C93.7761608,16 94.0000184,15.7761424 94.0000184,15.5 C94.0000184,15.2238576 93.7761608,15 93.5000184,15 C93.223876,15 93.0000184,15.2238576 93.0000184,15.5 C93.0000184,15.7761424 93.223876,16 93.5000184,16 Z M93.5000184,17 C92.6715913,17 92.0000184,16.3284271 92.0000184,15.5 C92.0000184,14.6715729 92.6715913,14 93.5000184,14 C94.3284455,14 95.0000184,14.6715729 95.0000184,15.5 C95.0000184,16.3284271 94.3284455,17 93.5000184,17 Z M82.5000184,16 C82.7761608,16 83.0000184,15.7761424 83.0000184,15.5 C83.0000184,15.2238576 82.7761608,15 82.5000184,15 C82.223876,15 82.0000184,15.2238576 82.0000184,15.5 C82.0000184,15.7761424 82.223876,16 82.5000184,16 Z M82.5000184,17 C81.6715913,17 81.0000184,16.3284271 81.0000184,15.5 C81.0000184,14.6715729 81.6715913,14 82.5000184,14 C83.3284455,14 84.0000184,14.6715729 84.0000184,15.5 C84.0000184,16.3284271 83.3284455,17 82.5000184,17 Z M85.5000184,2 L90.5000184,2 C90.7761608,2 91.0000184,2.22385763 91.0000184,2.5 C91.0000184,2.77614237 90.7761608,3 90.5000184,3 L85.5000184,3 C85.223876,3 85.0000184,2.77614237 85.0000184,2.5 C85.0000184,2.22385763 85.223876,2 85.5000184,2 Z M86.5000184,17 L89.5000184,17 C89.7761608,17 90.0000184,17.2238576 90.0000184,17.5 C90.0000184,17.7761424 89.7761608,18 89.5000184,18 L86.5000184,18 C86.223876,18 86.0000184,17.7761424 86.0000184,17.5 C86.0000184,17.2238576 86.223876,17 86.5000184,17 Z M81.1876709,19.1095656 C81.4033019,18.9370608 81.717948,18.9720215 81.8904528,19.1876525 C82.0629576,19.4032834 82.0279969,19.7179296 81.8123659,19.8904344 L76.8123659,23.8904344 C76.596735,24.0629392 76.2820888,24.0279785 76.109584,23.8123475 C75.9370792,23.5967166 75.9720399,23.2820704 76.1876709,23.1095656 L81.1876709,19.1095656 Z M82.5000184,21 L93.5000184,21 C93.7761608,21 94.0000184,21.2238576 94.0000184,21.5 C94.0000184,21.7761424 93.7761608,22 93.5000184,22 L82.5000184,22 C82.223876,22 82.0000184,21.7761424 82.0000184,21.5 C82.0000184,21.2238576 82.223876,21 82.5000184,21 Z M80.5000184,23 L95.5000184,23 C95.7761608,23 96.0000184,23.2238576 96.0000184,23.5 C96.0000184,23.7761424 95.7761608,24 95.5000184,24 L80.5000184,24 C80.223876,24 80.0000184,23.7761424 80.0000184,23.5 C80.0000184,23.2238576 80.223876,23 80.5000184,23 Z M94.1876709,19.8904344 C93.9720399,19.7179296 93.9370792,19.4032834 94.109584,19.1876525 C94.2820888,18.9720215 94.596735,18.9370608 94.8123659,19.1095656 L99.8123659,23.1095656 C100.027997,23.2820704 100.062958,23.5967166 99.8904528,23.8123475 C99.717948,24.0279785 99.4033019,24.0629392 99.1876709,23.8904344 L94.1876709,19.8904344 Z"></path></g></svg>