<svg viewBox="0 0 24 24" version="1.1" xmlns="http://www.w3.org/2000/svg" xmlns:xlink="http://www.w3.org/1999/xlink"><g fill="black" fill-rule="nonzero" transform="translate(-92.000000, 0.000000)"><path d="M98.2845949,14.7539881 L96.8317287,14.3907716 L96.0421506,15.1803497 C95.9932858,15.2292145 95.9932858,15.3084401 96.0421506,15.3573049 L97.7154427,17.030597 L96.614194,21.4355918 C96.5076803,21.8616466 96.6325169,22.3123464 96.9430551,22.6228846 L97.2355272,22.9153567 C97.3484083,23.0282378 97.5314247,23.0282378 97.6443058,22.9153567 C97.6624723,22.8971902 97.6781358,22.8766828 97.6908823,22.8543764 L103.053856,13.4691718 L109.04065,18.9770215 L107.835579,21.788852 C107.728972,22.0376029 107.78455,22.3261981 107.975917,22.5175645 C108.024781,22.5664293 108.104007,22.5664293 108.152872,22.5175645 L114.517547,16.1528893 C114.566412,16.1040245 114.566412,16.0247989 114.517547,15.9759341 C114.326181,15.7845677 114.037585,15.7289894 113.788834,15.8355969 L110.977004,17.0406671 L105.469154,11.0538739 L114.854359,5.6908998 C114.876665,5.67815333 114.897173,5.66248985 114.915339,5.64432332 C115.02822,5.53144223 115.02822,5.34842581 114.915339,5.23554472 L114.622867,4.94307259 C114.312329,4.63253444 113.861629,4.50769782 113.435574,4.61421152 L109.030579,5.71546022 L107.357287,4.04216812 C107.308423,3.99330328 107.229197,3.99330328 107.180332,4.04216812 L106.390754,4.83174623 L106.753971,6.28461244 L102.142152,7.4375671 L96.884435,1.72265737 C96.0477088,0.813172344 94.6321249,0.754189681 93.7226398,1.59091591 C93.6997805,1.61194654 93.6773615,1.63345088 93.6553974,1.65541493 C92.7815342,2.52927813 92.7815342,3.94609032 93.6553974,4.81995353 C93.6773615,4.84191758 93.6997805,4.86342191 93.7226398,4.88445255 L99.4375496,10.1421695 L98.2845949,14.7539881 Z M107.05427,11.2998445 L111.233689,15.8426915 L113.394915,14.9164519 C114.019509,14.6487689 114.744148,14.7883217 115.224654,15.2688273 C115.664043,15.7082164 115.664043,16.420607 115.224654,16.8599961 L108.859979,23.2246713 C108.420589,23.6640604 107.708199,23.6640604 107.26881,23.2246713 C106.788304,22.7441657 106.648751,22.0195262 106.916434,21.3949327 L107.842674,19.2337069 L103.299827,15.0542877 L98.5591254,23.3505154 C98.5022811,23.4499929 98.4324282,23.5414479 98.3514126,23.6224635 C97.8480072,24.1258689 97.0318258,24.1258689 96.5284204,23.6224635 L96.2359483,23.3299914 C95.6770298,22.7710729 95.452344,21.959886 95.6440515,21.1930562 L96.6079789,17.3373467 L95.3350438,16.0644117 C94.8956547,15.6250226 94.8956547,14.912632 95.3350438,14.4732429 L96.1306282,13.6776585 C96.3203889,13.4878978 96.5610685,13.3800898 96.8086859,13.3542345 L97.556988,13.54131 L98.3233364,10.4759164 L93.0455833,5.62038356 C93.0125082,5.58995446 92.9800703,5.55883996 92.9482906,5.52706031 C91.6839031,4.26267281 91.6839031,2.21269564 92.9482906,0.948308148 C92.9800703,0.916528492 93.0125082,0.885413998 93.0455833,0.854984896 C94.3615118,-0.355669327 96.4097118,-0.270327661 97.620366,1.04560084 L102.475899,6.32335396 L105.541292,5.55700556 L105.354217,4.80870346 C105.380072,4.56108606 105.48788,4.32040646 105.677641,4.13064574 L106.473225,3.33506134 C106.912615,2.89567221 107.625005,2.89567221 108.064394,3.33506134 L109.337329,4.60799638 L113.193039,3.64406902 C113.959868,3.45236156 114.771055,3.67704732 115.329974,4.23596581 L115.622446,4.52843794 C116.125851,5.03184332 116.125851,5.84802472 115.622446,6.3514301 C115.54143,6.43244569 115.449975,6.50229865 115.350498,6.55914295 L107.05427,11.2998445 Z M94.8535534,3.85355339 L95.8535534,2.85355339 C96.0488155,2.65829124 96.0488155,2.34170876 95.8535534,2.14644661 C95.6582912,1.95118446 95.3417088,1.95118446 95.1464466,2.14644661 L94.1464466,3.14644661 C93.9511845,3.34170876 93.9511845,3.65829124 94.1464466,3.85355339 C94.3417088,4.04881554 94.6582912,4.04881554 94.8535534,3.85355339 Z M109.853553,17.1464466 L107.853553,15.1464466 C107.658291,14.9511845 107.341709,14.9511845 107.146447,15.1464466 C106.951184,15.3417088 106.951184,15.6582912 107.146447,15.8535534 L109.146447,17.8535534 C109.341709,18.0488155 109.658291,18.0488155 109.853553,17.8535534 C110.048816,17.6582912 110.048816,17.3417088 109.853553,17.1464466 Z"></path></g></svg>