<svg viewBox="0 0 24 24" version="1.1" xmlns="http://www.w3.org/2000/svg" xmlns:xlink="http://www.w3.org/1999/xlink"><g fill="#aaa" fill-rule="nonzero"><path d="M12,10.5 C14.6233526,10.5 16.75,8.37335256 16.75,5.75 C16.75,3.12664744 14.6233526,1 12,1 C9.37664744,1 7.25,3.12664744 7.25,5.75 C7.25,8.37335256 9.37664744,10.5 12,10.5 Z M12,11.5 C8.82436269,11.5 6.25,8.92563731 6.25,5.75 C6.25,2.57436269 8.82436269,0 12,0 C15.1756373,0 17.75,2.57436269 17.75,5.75 C17.75,8.92563731 15.1756373,11.5 12,11.5 Z M22,24 C22,18.4771525 17.5228475,14 12,14 C6.4771525,14 2,18.4771525 2,24 L1,24 C1,17.9248678 5.92486775,13 12,13 C18.0751322,13 23,17.9248678 23,24 L22.5,24 L22,24 Z"></path></g></svg>