<svg viewBox="0 0 24 24" version="1.1" xmlns="http://www.w3.org/2000/svg" xmlns:xlink="http://www.w3.org/1999/xlink" width="25px"><g fill="black" fill-rule="nonzero" transform="translate(-44.000000, 0.000000)"><path d="M54,23 L67,23 L67,3 C67,2.44771525 66.5522847,2 66,2 L55,2 C54.4477153,2 54,2.44771525 54,3 L54,23 Z M55,1 L66,1 C67.1045695,1 68,1.8954305 68,3 L68,24 L53,24 L53,3 C53,1.8954305 53.8954305,1 55,1 Z M59.5,0 C59.7761424,-5.07265313e-17 60,0.223857625 60,0.5 L60,1.5 C60,1.77614237 59.7761424,2 59.5,2 C59.2238576,2 59,1.77614237 59,1.5 L59,0.5 C59,0.223857625 59.2238576,5.07265313e-17 59.5,0 Z M56.5,0 C56.7761424,-5.07265313e-17 57,0.223857625 57,0.5 L57,1.5 C57,1.77614237 56.7761424,2 56.5,2 C56.2238576,2 56,1.77614237 56,1.5 L56,0.5 C56,0.223857625 56.2238576,5.07265313e-17 56.5,0 Z M63,0 L64,0 C64.5522847,-1.01453063e-16 65,0.44771525 65,1 C65,1.55228475 64.5522847,2 64,2 L63,2 C62.4477153,2 62,1.55228475 62,1 C62,0.44771525 62.4477153,1.01453063e-16 63,0 Z M61,24 L61,22.5 C61,22.2238576 60.7761424,22 60.5,22 C60.2238576,22 60,22.2238576 60,22.5 L60,24 L59,24 L59,22.5 C59,21.6715729 59.6715729,21 60.5,21 C61.3284271,21 62,21.6715729 62,22.5 L62,24 L61,24 Z M56.5,4 L59.5,4 C59.7761424,4 60,4.22385763 60,4.5 C60,4.77614237 59.7761424,5 59.5,5 L56.5,5 C56.2238576,5 56,4.77614237 56,4.5 C56,4.22385763 56.2238576,4 56.5,4 Z M61.5,4 L64.5,4 C64.7761424,4 65,4.22385763 65,4.5 C65,4.77614237 64.7761424,5 64.5,5 L61.5,5 C61.2238576,5 61,4.77614237 61,4.5 C61,4.22385763 61.2238576,4 61.5,4 Z M56.5,7 L59.5,7 C59.7761424,7 60,7.22385763 60,7.5 C60,7.77614237 59.7761424,8 59.5,8 L56.5,8 C56.2238576,8 56,7.77614237 56,7.5 C56,7.22385763 56.2238576,7 56.5,7 Z M61.5,7 L64.5,7 C64.7761424,7 65,7.22385763 65,7.5 C65,7.77614237 64.7761424,8 64.5,8 L61.5,8 C61.2238576,8 61,7.77614237 61,7.5 C61,7.22385763 61.2238576,7 61.5,7 Z M56.5,10 L59.5,10 C59.7761424,10 60,10.2238576 60,10.5 C60,10.7761424 59.7761424,11 59.5,11 L56.5,11 C56.2238576,11 56,10.7761424 56,10.5 C56,10.2238576 56.2238576,10 56.5,10 Z M61.5,10 L64.5,10 C64.7761424,10 65,10.2238576 65,10.5 C65,10.7761424 64.7761424,11 64.5,11 L61.5,11 C61.2238576,11 61,10.7761424 61,10.5 C61,10.2238576 61.2238576,10 61.5,10 Z M56.5,13 L59.5,13 C59.7761424,13 60,13.2238576 60,13.5 C60,13.7761424 59.7761424,14 59.5,14 L56.5,14 C56.2238576,14 56,13.7761424 56,13.5 C56,13.2238576 56.2238576,13 56.5,13 Z M61.5,13 L64.5,13 C64.7761424,13 65,13.2238576 65,13.5 C65,13.7761424 64.7761424,14 64.5,14 L61.5,14 C61.2238576,14 61,13.7761424 61,13.5 C61,13.2238576 61.2238576,13 61.5,13 Z M56.5,16 L59.5,16 C59.7761424,16 60,16.2238576 60,16.5 C60,16.7761424 59.7761424,17 59.5,17 L56.5,17 C56.2238576,17 56,16.7761424 56,16.5 C56,16.2238576 56.2238576,16 56.5,16 Z M61.5,16 L64.5,16 C64.7761424,16 65,16.2238576 65,16.5 C65,16.7761424 64.7761424,17 64.5,17 L61.5,17 C61.2238576,17 61,16.7761424 61,16.5 C61,16.2238576 61.2238576,16 61.5,16 Z M56.5,19 L59.5,19 C59.7761424,19 60,19.2238576 60,19.5 C60,19.7761424 59.7761424,20 59.5,20 L56.5,20 C56.2238576,20 56,19.7761424 56,19.5 C56,19.2238576 56.2238576,19 56.5,19 Z M61.5,19 L64.5,19 C64.7761424,19 65,19.2238576 65,19.5 C65,19.7761424 64.7761424,20 64.5,20 L61.5,20 C61.2238576,20 61,19.7761424 61,19.5 C61,19.2238576 61.2238576,19 61.5,19 Z M45,23 L53,23 L53,8 L46,8 C45.4477153,8 45,8.44771525 45,9 L45,23 Z M46,7 L54,7 L54,24 L44,24 L44,9 C44,7.8954305 44.8954305,7 46,7 Z M47.5,4 C47.7761424,4 48,4.22385763 48,4.5 L48,7.5 C48,7.77614237 47.7761424,8 47.5,8 C47.2238576,8 47,7.77614237 47,7.5 L47,4.5 C47,4.22385763 47.2238576,4 47.5,4 Z M50.5,6 C50.7761424,6 51,6.22385763 51,6.5 L51,7.5 C51,7.77614237 50.7761424,8 50.5,8 C50.2238576,8 50,7.77614237 50,7.5 L50,6.5 C50,6.22385763 50.2238576,6 50.5,6 Z M50.5,10 C50.7761424,10 51,10.2238576 51,10.5 C51,10.7761424 50.7761424,11 50.5,11 C50.2238576,11 50,10.7761424 50,10.5 C50,10.2238576 50.2238576,10 50.5,10 Z M47.5,10 L48.5,10 C48.7761424,10 49,10.2238576 49,10.5 C49,10.7761424 48.7761424,11 48.5,11 L47.5,11 C47.2238576,11 47,10.7761424 47,10.5 C47,10.2238576 47.2238576,10 47.5,10 Z M47.5,13 L48.5,13 C48.7761424,13 49,13.2238576 49,13.5 C49,13.7761424 48.7761424,14 48.5,14 L47.5,14 C47.2238576,14 47,13.7761424 47,13.5 C47,13.2238576 47.2238576,13 47.5,13 Z M50.5,13 C50.7761424,13 51,13.2238576 51,13.5 C51,13.7761424 50.7761424,14 50.5,14 C50.2238576,14 50,13.7761424 50,13.5 C50,13.2238576 50.2238576,13 50.5,13 Z M47.5,16 L48.5,16 C48.7761424,16 49,16.2238576 49,16.5 C49,16.7761424 48.7761424,17 48.5,17 L47.5,17 C47.2238576,17 47,16.7761424 47,16.5 C47,16.2238576 47.2238576,16 47.5,16 Z M50.5,16 C50.7761424,16 51,16.2238576 51,16.5 C51,16.7761424 50.7761424,17 50.5,17 C50.2238576,17 50,16.7761424 50,16.5 C50,16.2238576 50.2238576,16 50.5,16 Z M47.5,19 L48.5,19 C48.7761424,19 49,19.2238576 49,19.5 C49,19.7761424 48.7761424,20 48.5,20 L47.5,20 C47.2238576,20 47,19.7761424 47,19.5 C47,19.2238576 47.2238576,19 47.5,19 Z M50.5,19 C50.7761424,19 51,19.2238576 51,19.5 C51,19.7761424 50.7761424,20 50.5,20 C50.2238576,20 50,19.7761424 50,19.5 C50,19.2238576 50.2238576,19 50.5,19 Z"></path></g></svg>