<svg xmlns:xlink="http://www.w3.org/1999/xlink" height="70px" width="70px" fill="" xmlns="http://www.w3.org/2000/svg" version="1.1" viewBox="0 0 70 70" class="svg-icon" data-v-1c7ef770=""><defs><path d="M35,68.8333333 C53.685634,68.8333333 68.8333333,53.685634 68.8333333,35 C68.8333333,16.314366 53.685634,1.16666667 35,1.16666667 C16.314366,1.16666667 1.16666667,16.314366 1.16666667,35 C1.16666667,53.685634 16.314366,68.8333333 35,68.8333333 Z M35,70 C15.6700338,70 0,54.3299662 0,35 C0,15.6700338 15.6700338,0 35,0 C54.3299662,0 70,15.6700338 70,35 C70,54.3299662 54.3299662,70 35,70 Z M14,43.1217826 L14,50.8742613 C14,51.8022481 14.7619262,52.5573819 15.6987454,52.5573819 L17.9118023,52.5573819 L17.9119525,39.2457666 C15.7547893,39.2456177 14,40.9844205 14,43.1217826 Z M52.0881977,39.2456177 L52.0881977,52.557233 L54.3014049,52.557233 C55.2379235,52.557233 56,51.8022481 56,50.8741125 L56,43.1216337 C55.9998497,40.9844205 54.2450605,39.2456177 52.0881977,39.2456177 Z M44.3675156,36.9502909 L44.3675156,33.7756619 L47.2884081,33.7756619 C48.4869657,33.7756619 49.6039366,33.4262339 50.5440613,32.8268315 L50.5440613,53.5647233 C50.5440613,54.9076466 49.4413643,56 48.0862445,56 L22.1194501,56 C20.76418,56 19.6617835,54.9074977 19.6617835,53.5647233 L19.6617835,32.8268315 C20.6019082,33.426085 21.7188791,33.775513 22.9172865,33.775513 L25.8380287,33.775513 L25.8380287,36.9502909 C25.8380287,37.5418024 26.3219893,38.0213541 26.9189392,38.0213541 C27.5158891,38.0213541 27.9998497,37.5418024 27.9998497,36.9502909 L27.9998497,33.775513 L42.2056945,33.775513 L42.2056945,36.9502909 C42.2056945,37.5418024 42.6896552,38.0213541 43.2866051,38.0213541 C43.883555,38.0213541 44.3675156,37.5418024 44.3675156,36.9502909 Z M47.841785,42.7647616 C47.841785,42.17325 47.3579746,41.6936984 46.7608745,41.6936984 L23.4448201,41.6936984 C22.8478702,41.6936984 22.3639095,42.17325 22.3639095,42.7647616 L22.3639095,51.5626956 C22.3639095,52.1542072 22.8478702,52.6337588 23.4448201,52.6337588 L46.7608745,52.6337588 C47.3578244,52.6337588 47.841785,52.1542072 47.841785,51.5626956 L47.841785,42.7647616 Z M24.5257306,43.8358248 L45.6799639,43.8358248 L45.6799639,50.4917813 L24.5257306,50.4917813 L24.5257306,43.8358248 Z M25.5812486,44.945002 L25.5812486,49.3826041 L44.6244459,49.3826041 L44.6244459,44.945002 L25.5812486,44.945002 Z M30.1614765,17.3275316 C30.9758684,15.3688303 32.8357762,14 34.9999249,14 C37.1640735,14 39.0239813,15.3688303 39.8383732,17.3275316 L47.2884081,17.3275316 C49.4240853,17.3275316 51.1615957,19.0492129 51.1618962,21.1654337 L51.1618962,27.7954846 C51.1618962,29.9117054 49.4243858,31.6333866 47.2887086,31.6333866 L44.3678161,31.6333866 L44.3678161,24.9397627 C44.3678161,24.3482512 43.8838555,23.8686995 43.2869056,23.8686995 C42.6899557,23.8686995 42.205995,24.3482512 42.205995,24.9397627 L42.205995,31.6333866 L28.0001503,31.6333866 L28.0001503,24.9397627 C28.0001503,24.3482512 27.5161896,23.8686995 26.9192397,23.8686995 C26.3222898,23.8686995 25.8383292,24.3482512 25.8383292,24.9397627 L25.8383292,31.6333866 L22.9172865,31.6333866 C20.7816092,31.6333866 19.0442491,29.9117054 19.0442491,27.7954846 L19.0442491,21.1654337 C19.0442491,19.0492129 20.7816092,17.3275316 22.9172865,17.3275316 L30.1614765,17.3275316 Z M31.3426875,17.3275316 L38.6571588,17.3275316 C37.9271427,16.0013963 36.5626876,15.1091772 34.9999249,15.1091772 C33.4371627,15.1091772 32.0727079,16.0013958 31.3426916,17.3275304 Z" id="path_1"></path></defs> <g stroke="none" stroke-width="1"><g transform="translate(-565.000000, -367.000000)"><g transform="translate(0.000000, 60.000000)"><g transform="translate(200.000000, 312.000000)"><g transform="translate(359.000000, 0.000000)"><g transform="translate(6.000000, -5.000000)"><mask fill="white"><use xlink:href="#path_1"></use></mask> <use fill="#FFF" fill-rule="nonzero" xlink:href="#path_1"></use></g></g></g></g></g></g></svg>