<svg version="1.1" xmlns="http://www.w3.org/2000/svg" width="64" height="64" viewBox="0 0 64 64" data-v-1c7ef770=""><path fill="#fff" d="M32 62.933c-17.084 0-30.933-13.849-30.933-30.933s13.849-30.933 30.933-30.933c17.084 0 30.933 13.849 30.933 30.933s-13.849 30.933-30.933 30.933zM32 64c17.673 0 32-14.327 32-32s-14.327-32-32-32c-17.673 0-32 14.327-32 32s14.327 32 32 32zM47.38 47.995l1.499-5.119c0.449-0.78 0.835-1.636 1.424-2.326 0.679-0.796 1.75-1.882 3.212-3.258 0.213-0.2 0.223-0.536 0.023-0.749-0.035-0.038-0.076-0.070-0.121-0.096l-0.228-0.132c-0.25-0.144-0.547-0.181-0.825-0.102-2.574 0.731-4.525 1.267-5.852 1.607-3.709-2.602-7.483-5.121-11.342-7.508 1.146-1.978 2.557-3.772 3.915-5.609 2.065-2.794 4.152-5.662 6.262-8.602v0c0.261-0.364 0.178-0.87-0.186-1.131-0.022-0.015-0.044-0.030-0.067-0.043-0.47-0.272-1.057-0.237-1.491 0.088-2.57 1.922-4.5 3.414-5.791 4.475l-1.173-0.647c-0.427-0.247-0.945-0.151-1.155 0.213s-0.035 0.86 0.393 1.107l0.65 0.375-2.526 2.060-1.195-0.69c-0.428-0.246-0.945-0.151-1.156 0.213-0.21 0.365-0.034 0.86 0.393 1.107l0.698 0.403c-2.508 2.070-1.255 1.034-3.758 3.109-1.548-0.894-11.339-6.389-13.253-6.371-0.873 0.008-1.796 0.253-2.207 0.965s-0.161 1.633 0.268 2.393c0.666 0.989 1.978 1.82 2.931 2.493 2.961 2.092 6.096 3.942 9.213 5.798-0.208 0.603-0.021-0.007-0.187 1.151-0.176 1.231-0.417 2.446-0.591 3.679l-0.735-0.425c-0.427-0.247-0.944-0.152-1.155 0.213s-0.034 0.86 0.393 1.107l1.24 0.716-0.515 3.221-0.701-0.404c-0.427-0.247-0.945-0.151-1.155 0.213s-0.035 0.86 0.393 1.107l1.218 0.703c-0.25 1.652-0.595 4.066-1.034 7.243-0.074 0.536 0.184 1.063 0.652 1.333 0.388 0.224 0.884 0.091 1.107-0.297 0.013-0.023 0.025-0.046 0.036-0.070l7.225-15.915c3.983 2.235 8.114 4.205 12.218 6.19 0.316 1.303 0.809 3.22 1.479 5.753 0.073 0.275 0.252 0.509 0.498 0.651l0.235 0.136c0.269 0.155 0.612 0.063 0.768-0.206 0.022-0.039 0.040-0.080 0.053-0.123z"></path></svg>