<svg width="70px" height="70px" viewBox="0 0 70 70" version="1.1" xmlns="http://www.w3.org/2000/svg" xmlns:xlink="http://www.w3.org/1999/xlink" data-v-1c7ef770=""><g stroke="none" stroke-width="1" fill="none" fill-rule="evenodd"><g transform="translate(-465.000000, -407.000000)"><g transform="translate(0.000000, 392.000000)"><g transform="translate(275.000000, 15.000000)"><g transform="translate(190.000000, 0.000000)"><rect x="0" y="0" width="70" height="70"></rect> <path d="M35,68.8333333 C53.685634,68.8333333 68.8333333,53.685634 68.8333333,35 C68.8333333,16.314366 53.685634,1.16666667 35,1.16666667 C16.314366,1.16666667 1.16666667,16.314366 1.16666667,35 C1.16666667,53.685634 16.314366,68.8333333 35,68.8333333 Z M35,70 C15.6700338,70 0,54.3299662 0,35 C0,15.6700338 15.6700338,0 35,0 C54.3299662,0 70,15.6700338 70,35 C70,54.3299662 54.3299662,70 35,70 Z M31.5,43.1666667 L31.5,31.5118804 C31.5,30.8609868 32.0036692,30.3333333 32.6249767,30.3333333 L35,30.3333333 L35,43.1666667 L37.3333333,43.1666667 L37.3333333,30.3333333 L48.8334574,30.3333333 C52.1470974,30.3333333 54.8333333,32.9716008 54.8333333,36.2260686 L54.8333333,54.25 C54.8333333,54.5721661 54.5721661,54.8333333 54.25,54.8333333 C53.9278339,54.8333333 53.6666667,54.5721661 53.6666667,54.25 L53.6666667,50.1666667 L16.3333333,50.1666667 L16.3333333,54.25 C16.3333333,54.5721661 16.0721661,54.8333333 15.75,54.8333333 C15.4278339,54.8333333 15.1666667,54.5721661 15.1666667,54.25 L15.1666667,29.75 C15.1666667,29.4278339 15.4278339,29.1666667 15.75,29.1666667 C16.0721661,29.1666667 16.3333333,29.4278339 16.3333333,29.75 L16.3333333,43.1666667 L31.5,43.1666667 Z M16.3333333,49 L53.6666667,49 L53.6666667,46.6666667 L16.3333333,46.6666667 L16.3333333,49 Z M23.9166667,40.8333333 C21.0171717,40.8333333 18.6666667,38.4828283 18.6666667,35.5833333 C18.6666667,32.6838384 21.0171717,30.3333333 23.9166667,30.3333333 C26.8161616,30.3333333 29.1666667,32.6838384 29.1666667,35.5833333 C29.1666667,38.4828283 26.8161616,40.8333333 23.9166667,40.8333333 Z M35.9919257,16.5518425 C35.3771242,16.2712083 34.6708476,16.2709225 34.0558192,16.551059 L14.1467306,25.6193589 C13.8886131,25.7369277 13.5839854,25.6242773 13.4644631,25.3670585 L13.464271,25.3666446 C13.3453476,25.1101163 13.4568983,24.8057525 13.7134266,24.6868291 L33.5497833,15.4909313 C34.4847031,15.0575137 35.5631135,15.0581288 36.4975383,15.4926126 L56.2889438,24.6951153 C56.5435961,24.8135222 56.6541547,25.115863 56.5359564,25.3706123 C56.4175724,25.6257618 56.1153977,25.7374639 55.8595188,25.6206646 L35.9919257,16.5518425 Z" fill="#FFA500" fill-rule="nonzero"></path></g></g></g></g></g></svg>