<svg version="1.1" xmlns="http://www.w3.org/2000/svg" width="64" height="64" viewBox="0 0 64 64" data-v-1c7ef770=""><path fill="#fff" d="M47.992 33.007c0.338-0.093 0.695-0.192 1.071-0.297 0.003-0.236 0.004-0.473 0.004-0.71 0-3.542-0.307-6.949-0.873-10.133h13.042c1.1 3.175 1.698 6.584 1.698 10.133s-0.598 6.959-1.698 10.133h-6.582c-0.408 0.414-0.743 0.77-1.002 1.067h7.192c-3.885 9.997-12.817 17.475-23.668 19.302 3.162-1.885 5.925-5.45 7.989-10.136-0.251-0.093-0.498-0.209-0.738-0.347l-0.219-0.126c-2.855 6.511-7.058 10.721-11.675 11.023v-17.889l-1.067 2.35v15.539c-3.66-0.24-7.059-2.935-9.734-7.286-0.035-0.019-0.071-0.039-0.106-0.060-1.971-1.139-3.056-3.357-2.744-5.612 0.012-0.084 0.023-0.166 0.034-0.249-0.734-2.007-1.348-4.19-1.82-6.51h1.264c-0.1-0.346-0.163-0.704-0.186-1.067h-1.284c-0.576-3.171-0.891-6.579-0.891-10.133 0-0.367 0.003-0.733 0.010-1.097-0.357-0.238-0.706-0.474-1.050-0.712-0.018 0.599-0.027 1.202-0.027 1.809 0 3.542 0.307 6.949 0.873 10.133h-13.042c-1.1-3.175-1.698-6.584-1.698-10.133s0.598-6.959 1.698-10.133h6.263c0.018-0.355 0.068-0.711 0.154-1.067h-6.025c3.885-9.997 12.817-17.475 23.668-19.302-4.136 2.465-7.588 7.805-9.689 14.768 0.323 0.071 0.665 0.165 1.029 0.284 2.717-8.99 7.706-15.099 13.302-15.466v16.484l0.007-0.001c0.088-0.219 0.194-0.436 0.318-0.649 0.214-0.37 0.464-0.699 0.742-0.986v-14.848c4.239 0.278 8.128 3.849 10.947 9.472 0.38-0.064 0.766-0.089 1.152-0.074-1.997-4.119-4.559-7.257-7.457-8.984 10.851 1.828 19.784 9.305 23.668 19.302h-12.851c-0.056-0.278-0.113-0.555-0.172-0.83-0.458 0.636-0.915 1.268-1.371 1.896h0.66c0.576 3.171 0.891 6.579 0.891 10.133 0 0.337-0.003 0.673-0.008 1.007zM33.847 42.133l-0.484 1.067h4.137c-0.778-0.383-1.486-0.734-2.146-1.067h-1.506zM3.157 43.2h12.851c1.825 9.157 5.823 16.326 10.817 19.302-10.851-1.828-19.784-9.305-23.668-19.302zM32 64c17.673 0 32-14.327 32-32s-14.327-32-32-32c-17.673 0-32 14.327-32 32s14.327 32 32 32zM47.38 47.995l1.499-5.119c0.449-0.78 0.835-1.636 1.424-2.326 0.679-0.796 1.75-1.882 3.212-3.258 0.213-0.2 0.223-0.536 0.023-0.749-0.035-0.038-0.076-0.070-0.121-0.096l-0.228-0.132c-0.25-0.144-0.547-0.181-0.825-0.102-2.574 0.731-4.525 1.267-5.852 1.607-3.709-2.602-7.483-5.121-11.342-7.508 1.146-1.978 2.557-3.772 3.915-5.609 2.065-2.794 4.152-5.662 6.262-8.602v0c0.261-0.364 0.178-0.87-0.186-1.131-0.022-0.015-0.044-0.030-0.067-0.043-0.47-0.272-1.057-0.237-1.491 0.088-2.57 1.922-4.5 3.414-5.791 4.475l-1.173-0.647c-0.427-0.247-0.945-0.151-1.155 0.213s-0.035 0.86 0.393 1.107l0.65 0.375-2.526 2.060-1.195-0.69c-0.428-0.246-0.945-0.151-1.156 0.213-0.21 0.365-0.034 0.86 0.393 1.107l0.698 0.403c-2.508 2.070-1.255 1.034-3.758 3.109-1.548-0.894-11.339-6.389-13.253-6.371-0.873 0.008-1.796 0.253-2.207 0.965s-0.161 1.633 0.268 2.393c0.666 0.989 1.978 1.82 2.931 2.493 2.961 2.092 6.096 3.942 9.213 5.798-0.208 0.603-0.021-0.007-0.187 1.151-0.176 1.231-0.417 2.446-0.591 3.679l-0.735-0.425c-0.427-0.247-0.944-0.152-1.155 0.213s-0.034 0.86 0.393 1.107l1.24 0.716-0.515 3.221-0.701-0.404c-0.427-0.247-0.945-0.151-1.155 0.213s-0.035 0.86 0.393 1.107l1.218 0.703c-0.25 1.652-0.595 4.066-1.034 7.243-0.074 0.536 0.184 1.063 0.652 1.333 0.388 0.224 0.884 0.091 1.107-0.297 0.013-0.023 0.025-0.046 0.036-0.070l7.225-15.915c3.983 2.235 8.114 4.205 12.218 6.19 0.316 1.303 0.809 3.22 1.479 5.753 0.073 0.275 0.252 0.509 0.498 0.651l0.235 0.136c0.269 0.155 0.612 0.063 0.768-0.206 0.022-0.039 0.040-0.080 0.053-0.123z"></path></svg>