<svg xmlns="http://www.w3.org/2000/svg" viewBox="0 0 70 70" data-v-1c7ef770=""><g fill="none" fill-rule="evenodd"><rect width="70" height="70"></rect> <path fill="#FF9800" fill-rule="nonzero" d="M35,68.8333333 C53.685634,68.8333333 68.8333333,53.685634 68.8333333,35 C68.8333333,16.314366 53.685634,1.16666667 35,1.16666667 C16.314366,1.16666667 1.16666667,16.314366 1.16666667,35 C1.16666667,53.685634 16.314366,68.8333333 35,68.8333333 Z M35,70 C15.6700338,70 0,54.3299662 0,35 C0,15.6700338 15.6700338,0 35,0 C54.3299662,0 70,15.6700338 70,35 C70,54.3299662 54.3299662,70 35,70 Z M18.6666667,53.6670939 C17.2498122,52.6028532 16.3333333,50.9084541 16.3333333,49 L16.3333333,19.8333333 C16.3333333,14.6786757 20.512009,10.5 25.6666667,10.5 L44.3333333,10.5 C49.487991,10.5 53.6666667,14.6786757 53.6666667,19.8333333 L53.6666667,49 C53.6666667,50.9084541 52.7501878,52.6028532 51.3333333,53.6670939 L51.3333333,57.1666667 C51.3333333,58.4553311 50.2886644,59.5 49,59.5 L46.6666667,59.5 C45.3780023,59.5 44.3333333,58.4553311 44.3333333,57.1666667 L44.3333333,54.8333333 L25.6666667,54.8333333 L25.6666667,57.1666667 C25.6666667,58.4553311 24.6219977,59.5 23.3333333,59.5 L21,59.5 C19.7113356,59.5 18.6666667,58.4553311 18.6666667,57.1666667 L18.6666667,53.6670939 Z M22.1666667,16.3333333 C19.5893378,16.3333333 17.5,18.4226712 17.5,21 L17.5,35 C26.25,39.6666667 43.75,39.6666667 52.5,35 L52.5,21 C52.5,18.4226712 50.4106622,16.3333333 47.8333333,16.3333333 L22.1666667,16.3333333 Z M21,45.5 C19.7113356,45.5 18.6666667,46.5446689 18.6666667,47.8333333 C18.6666667,49.1219977 19.7113356,50.1666667 21,50.1666667 L25.3390942,50.1666667 C25.434483,50.1666667 25.5295117,50.1549681 25.6220524,50.1318329 C26.2471465,49.9755594 26.6272006,49.3421358 26.4709271,48.7170418 L25.8875938,46.3837084 C25.7577534,45.8643469 25.2911064,45.5 24.7557609,45.5 L21,45.5 Z M49,45.5 L45.2442391,45.5 C44.7088936,45.5 44.2422466,45.8643469 44.1124062,46.3837084 L43.5290729,48.7170418 C43.3727994,49.3421358 43.7528535,49.9755594 44.3779476,50.1318329 C44.4704883,50.1549681 44.565517,50.1666667 44.6609058,50.1666667 L49,50.1666667 C50.2886644,50.1666667 51.3333333,49.1219977 51.3333333,47.8333333 C51.3333333,46.5446689 50.2886644,45.5 49,45.5 Z M14,32.6666667 C11.6666667,31.5406659 10.5,30.7628881 10.5,30.3333333 L10.5,24.5 C10.5,23.2113356 11.5446689,22.1666667 12.8333333,22.1666667 L14,22.1666667 C14.6443322,22.1666667 15.1666667,22.6890011 15.1666667,23.3333333 L15.1666667,32.6666667 C15.1666667,33.3109989 15.6890011,33.8333333 16.3333333,33.8333333 L16.3333333,35 C15.0446689,35 14,33.9553311 14,32.6666667 Z M56,32.6666667 C56,33.9553311 54.9553311,35 53.6666667,35 L53.6666667,33.8333333 C54.3109989,33.8333333 54.8333333,33.3109989 54.8333333,32.6666667 L54.8333333,23.3333333 C54.8333333,22.6890011 55.3556678,22.1666667 56,22.1666667 L57.1666667,22.1666667 C58.4553311,22.1666667 59.5,23.2113356 59.5,24.5 L59.5,30.3333333 C59.5,30.7628881 58.3333333,31.5406659 56,32.6666667 Z M28.5833333,45.5 C28.2611672,45.5 28,45.7611672 28,46.0833333 C28,46.4054994 28.2611672,46.6666667 28.5833333,46.6666667 L41.4166667,46.6666667 C41.7388328,46.6666667 42,46.4054994 42,46.0833333 C42,45.7611672 41.7388328,45.5 41.4166667,45.5 L28.5833333,45.5 Z M29.75,47.8333333 C29.4278339,47.8333333 29.1666667,48.0945006 29.1666667,48.4166667 C29.1666667,48.7388328 29.4278339,49 29.75,49 L40.25,49 C40.5721661,49 40.8333333,48.7388328 40.8333333,48.4166667 C40.8333333,48.0945006 40.5721661,47.8333333 40.25,47.8333333 L29.75,47.8333333 Z M30.9166667,50.1666667 C30.5945006,50.1666667 30.3333333,50.4278339 30.3333333,50.75 C30.3333333,51.0721661 30.5945006,51.3333333 30.9166667,51.3333333 L39.0833333,51.3333333 C39.4054994,51.3333333 39.6666667,51.0721661 39.6666667,50.75 C39.6666667,50.4278339 39.4054994,50.1666667 39.0833333,50.1666667 L30.9166667,50.1666667 Z"></path></g></svg>