<svg version="1.1" xmlns="http://www.w3.org/2000/svg" width="64" height="64" viewBox="0 0 64 64" data-v-1c7ef770=""><g fill="black" fill-rule="nonzero"><path fill="#fff" d="M32 62.933c17.084 0 30.933-13.849 30.933-30.933s-13.849-30.933-30.933-30.933c-17.084 0-30.933 13.849-30.933 30.933s13.849 30.933 30.933 30.933zM32 64c-17.673 0-32-14.327-32-32s14.327-32 32-32c17.673 0 32 14.327 32 32s-14.327 32-32 32zM39.733 42.667h-15.467l-7.84 10.453c-0.177 0.236-0.511 0.283-0.747 0.107s-0.283-0.511-0.107-0.747l7.36-9.813h-1.6c-2.945 0-5.333-2.388-5.333-5.333v-16c0-5.891 4.776-10.667 10.667-10.667h10.667c5.891 0 10.667 4.776 10.667 10.667v16c0 2.946-2.388 5.333-5.333 5.333h-1.6l7.36 9.813c0.177 0.236 0.129 0.57-0.107 0.747s-0.57 0.129-0.747-0.107l-7.84-10.453zM25.6 13.867v0c-3.535 0-6.4 2.865-6.4 6.4v5.333c0 1.178 0.955 2.133 2.133 2.133h21.333c1.178 0 2.133-0.955 2.133-2.133v-5.333c0-3.535-2.865-6.4-6.4-6.4h-12.8zM23.467 38.4c1.767 0 3.2-1.433 3.2-3.2s-1.433-3.2-3.2-3.2c-1.767 0-3.2 1.433-3.2 3.2s1.433 3.2 3.2 3.2zM40.533 38.4c1.767 0 3.2-1.433 3.2-3.2s-1.433-3.2-3.2-3.2c-1.767 0-3.2 1.433-3.2 3.2s1.433 3.2 3.2 3.2zM25.067 48c-0.295 0-0.533-0.239-0.533-0.533s0.239-0.533 0.533-0.533h13.899c0.295 0 0.533 0.239 0.533 0.533s-0.239 0.533-0.533 0.533h-13.899zM20.8 53.333c-0.295 0-0.533-0.239-0.533-0.533s0.239-0.533 0.533-0.533h22.4c0.295 0 0.533 0.239 0.533 0.533s-0.239 0.533-0.533 0.533h-22.4z"></path></g></svg>